<!-- icon666.com - MILLIONS vector ICONS FREE --><svg id="Capa_1" enable-background="new 0 0 512 512" viewBox="0 0 512 512" xmlns="http://www.w3.org/2000/svg" xmlns:xlink="http://www.w3.org/1999/xlink"><linearGradient id="SVGID_1_" gradientUnits="userSpaceOnUse" x1="256" x2="256" y1="512" y2="0"><stop offset="0" stop-color="#c3ffe8"></stop><stop offset=".9973" stop-color="#f0fff4"></stop></linearGradient><linearGradient id="SVGID_2_" gradientUnits="userSpaceOnUse" x1="256" x2="256" y1="105" y2="407"><stop offset="0" stop-color="#00b59c"></stop><stop offset="1" stop-color="#9cffac"></stop></linearGradient><g><g><circle cx="256" cy="256" fill="url(#SVGID_1_)" r="256"></circle></g><g><g><path d="m294.028 307.395c-4.129-2.117-5.725-7.313-3.591-11.589l17.921-35.833c1.371-2.75 1.232-6.02-.382-8.639-1.631-2.62-4.493-4.216-7.564-4.216h-71.059c-3.071 0-5.933 1.596-7.564 4.216-1.613 2.62-1.752 5.89-.382 8.639l17.921 35.833c2.134 4.276.538 9.472-3.574 11.58-20.384 10.435-33.049 30.741-33.049 52.982 0 16.889 7.442 33.083 20.436 44.438 1.613 1.414 3.695 2.195 5.846 2.195h71.787c2.151 0 4.233-.781 5.846-2.195 12.994-11.354 20.436-27.549 20.436-44.438.003-22.241-12.661-42.547-33.028-52.973zm41.913-131.336h-142.117c-4.905 0-8.882 3.976-8.882 8.882 0 14.717 11.93 26.647 26.647 26.647h35.529c0 9.811 7.953 17.765 17.765 17.765s17.765-7.954 17.765-17.765h35.529c14.717 0 26.647-11.93 26.647-26.647 0-4.906-3.978-8.882-8.883-8.882zm-88.513-37.065c-.048.532-.31.991-.31 1.535 0 9.811 7.953 17.765 17.765 17.765s17.765-7.954 17.765-17.765c0-.544-.262-1.003-.31-1.535 10.485-3.583 18.075-13.413 18.075-25.112 0-4.906-3.977-8.882-8.882-8.882h-53.294c-4.905 0-8.882 3.976-8.882 8.882-.002 11.7 7.588 21.529 18.073 25.112zm-70.953 232.477c-24.721 0-44.828-20.107-44.828-44.82 0-13.558 8.778-22.015 16.984-25.415 6.321-2.627 14.968-3.23 22.982.922-2.494 3.469-2.336 8.258.785 11.378l18.191 18.191c4.544-11.165 11.697-21.19 20.982-29.259l-14.052-14.052c-3.47-3.469-9.091-3.469-12.56 0l-.657.657c-12.444-8.455-28.033-10.197-42.471-4.257-17.244 7.147-27.948 23.177-27.948 41.835 0 34.506 28.087 62.584 62.593 62.584h14.471c-2.351-5.694-3.876-11.645-4.794-17.765h-9.678zm212.76-230.942h-8.882v-26.647c0-4.91-3.973-8.882-8.882-8.882-4.91 0-8.882 3.973-8.882 8.882v26.647h-8.882c-4.91 0-8.882 3.973-8.882 8.882 0 4.91 3.973 8.883 8.882 8.883h8.882v168.765c0 14.564-7.141 27.4-18.004 35.503-.229 7.733-1.845 15.22-4.345 22.437 23.386-8.941 40.114-31.453 40.114-57.94v-168.765h8.882c4.91 0 8.882-3.973 8.882-8.883 0-4.909-3.973-8.882-8.883-8.882z" fill="url(#SVGID_2_)"></path></g></g></g></svg>