<!-- icon666.com - MILLIONS vector ICONS FREE --><svg id="Icons" enable-background="new 0 0 64 64" viewBox="0 0 64 64" xmlns="http://www.w3.org/2000/svg" xmlns:xlink="http://www.w3.org/1999/xlink"><linearGradient id="SVGID_1_" gradientTransform="matrix(1 0 0 -1 0 66)" gradientUnits="userSpaceOnUse" x1="32" x2="32" y1="59" y2="9"><stop offset="0" stop-color="#e4e9f4"></stop><stop offset="1" stop-color="#bccbe2"></stop></linearGradient><linearGradient id="lg1"><stop offset="0" stop-color="#9ebff5"></stop><stop offset="1" stop-color="#6f98e7"></stop></linearGradient><linearGradient id="SVGID_2_" gradientTransform="matrix(1 0 0 -1 0 66)" gradientUnits="userSpaceOnUse" x1="32" x2="32" xlink:href="#lg1" y1="61" y2="7"></linearGradient><linearGradient id="SVGID_3_" gradientTransform="matrix(1 0 0 -1 0 66)" gradientUnits="userSpaceOnUse" x1="32" x2="32" xlink:href="#lg1" y1="51" y2="33"></linearGradient><g><circle cx="32" cy="32" fill="url(#SVGID_1_)" r="25"></circle><path d="m32 5c-14.9 0-27 12.1-27 27s12.1 27 27 27 27-12.1 27-27-12.1-27-27-27zm17.4 42.1c-5.5-9.6-17.7-12.9-27.3-7.4-3.1 1.8-5.7 4.3-7.4 7.4-8.4-9.6-7.4-24.1 2.2-32.5s24.1-7.3 32.5 2.3c7.5 8.6 7.5 21.5 0 30.2z" fill="url(#SVGID_2_)"></path><path d="m32 15c-4.4 0-8 3.6-8 8v2c0 4.4 3.6 8 8 8s8-3.6 8-8v-2c0-4.4-3.6-8-8-8z" fill="url(#SVGID_3_)"></path></g></svg>